<svg width="1440" height="506" viewBox="0 0 1440 506" fill="none" xmlns="http://www.w3.org/2000/svg">
<path fill-rule="evenodd" clip-rule="evenodd" d="M852 73.5894H823V369.658H852H882H911H940H970H999H1029H1058H1087H1117H1146H1176H1205H1234H1264H1293H1322H1352H1381H1411L1438.63 505.849L1440 73.5894H1411V36.7947H1381H1352V332.864H1322V296.069H1293V148.035H1264V258.419H1234V332.864H1205V111.24H1176V0H1146V332.864H1117V0H1087V148.035H1058V73.5894H1029V258.419H999V296.069H970V221.624H940V296.069H911V148.035H882V111.24H852V73.5894Z" fill="black"/>
<path d="M0 73.5894V296.069V506H40H54C54 506 71.6748 506 83 506C94.7157 506 113 506 113 506H142H1440L1439.12 353.336L264 369.658H294H323H353H382H411H441H470H500H529H558H588H617H647H676H705H735H764H793V296.069H764V148.035H735V296.069H705V184.829H676V73.5894H647V332.864H617V111.24H588V296.069H558V221.624H529V184.829H500V221.624H470V258.419H441V36.7947H411V221.624H382H353V296.069H323V73.5894H294V184.829H264V36.7947H235V296.069H206H176V148.035H147V0H118V332.864H88V296.069H59V148.035H29V73.5894H0Z" fill="black"/>
</svg>
