<svg width="1440" height="330" viewBox="0 0 1440 330" fill="none" xmlns="http://www.w3.org/2000/svg">
<path d="M764.4 327V39H734.4V183H705.6V3H675.6H646.8H616.8V291H588V147H558V255H529.2V291H499.2V39H470.4V291H440.4V147H411.6V39H381.6V183H352.8V147H322.8V219H294V111H264V75H235.2H205.2V219H176.4V183H146.4V111H117.6V75H87.6V147H58.8V255H28.8V147H0L0 219L0 327H28.8H58.8H87.6H117.6H146.4H176.4H205.2H235.2H264H294H322.8H352.8H381.6H411.6H440.4H470.4H499.2H529.2H558H588H616.8H646.8H675.6H705.6H734.4H764.4ZM764.4 327H793.2M793.2 327V219H823.2V75H852H882V39H910.8V291H940.8H969.6V39H999.6V255H1028.4H1058.4V147H1087.2V75H1117.2V327M793.2 327H823.2H852H882H910.8H940.8H969.6H999.6H1028.4H1058.4H1087.2H1117.2M1117.2 327H1146M1146 327V291H1176V111H1204.8V39H1234.8V75H1263.6V255H1293.6V3H1322.4V291H1352.4V3H1381.2V255H1411.2V291H1440V327H1411.2H1381.2H1352.4H1322.4H1293.6H1263.6H1234.8H1204.8H1176H1146Z" stroke="black" stroke-opacity="0.75" stroke-width="6"/>
</svg>
