<svg width="1443" height="954" viewBox="0 0 1443 954" fill="none" xmlns="http://www.w3.org/2000/svg">
<path d="M256.893 823.881C256.535 893.938 199.126 950.471 128.63 950.115C58.1343 949.759 1.30557 892.649 1.66347 822.592C2.02138 752.535 59.4307 696.002 129.926 696.358C200.422 696.714 257.251 753.824 256.893 823.881Z" stroke="black" stroke-opacity="0.75" stroke-width="6"/>
<path d="M1224.95 803.611C1224.74 844.926 1190.88 878.277 1149.29 878.067C1107.7 877.857 1074.19 844.166 1074.4 802.851C1074.61 761.536 1108.47 728.185 1150.06 728.395C1191.65 728.605 1225.16 762.297 1224.95 803.611Z" stroke="black" stroke-opacity="0.75" stroke-width="6"/>
<path d="M1224.95 803.611C1224.74 844.926 1190.88 878.277 1149.29 878.067C1107.7 877.857 1074.19 844.166 1074.4 802.851C1074.61 761.536 1108.47 728.185 1150.06 728.395C1191.65 728.605 1225.16 762.297 1224.95 803.611Z" stroke="black" stroke-opacity="0.2" stroke-width="6"/>
<path d="M1439.57 549.651C1439.09 643.722 1362 719.624 1267.36 719.146C1172.71 718.667 1096.4 641.991 1096.89 547.92C1097.37 453.848 1174.45 377.947 1269.1 378.425C1363.75 378.903 1440.05 455.579 1439.57 549.651Z" stroke="black" stroke-opacity="0.75" stroke-width="6"/>
<path d="M1439.57 549.651C1439.09 643.722 1362 719.624 1267.36 719.146C1172.71 718.667 1096.4 641.991 1096.89 547.92C1097.37 453.848 1174.45 377.947 1269.1 378.425C1363.75 378.903 1440.05 455.579 1439.57 549.651Z" stroke="black" stroke-opacity="0.2" stroke-width="6"/>
<path d="M295.097 295.961C294.879 338.631 259.909 373.076 216.955 372.859C174.001 372.642 139.386 337.846 139.604 295.175C139.822 252.504 174.791 218.06 217.745 218.277C260.699 218.494 295.315 253.29 295.097 295.961Z" stroke="#A3A3A3" stroke-opacity="0.75" stroke-width="6"/>
<path d="M293.462 148.501C293.056 228.026 227.888 292.195 147.871 291.791C67.8533 291.387 3.34479 226.562 3.75106 147.037C4.15734 67.5119 69.3248 3.34263 149.342 3.74682C229.36 4.15102 293.868 68.9753 293.462 148.501Z" stroke="black" stroke-opacity="0.75" stroke-width="6"/>
<path d="M293.462 148.501C293.056 228.026 227.888 292.195 147.871 291.791C67.8533 291.387 3.34479 226.562 3.75106 147.037C4.15734 67.5119 69.3248 3.34263 149.342 3.74682C229.36 4.15102 293.868 68.9753 293.462 148.501Z" stroke="black" stroke-opacity="0.2" stroke-width="6"/>
</svg>
