<svg width="1440" height="1090" viewBox="0 0 1781 1092" fill="none" xmlns="http://www.w3.org/2000/svg">
<path d="M1439.95 871.611C1439.74 912.926 1405.88 946.277 1364.29 946.067C1322.7 945.857 1289.19 912.166 1289.4 870.851C1289.61 829.536 1323.47 796.185 1365.06 796.395C1406.65 796.605 1440.16 830.297 1439.95 871.611Z" stroke="black" stroke-opacity="0.75" stroke-width="6"/>
<path d="M1439.95 871.611C1439.74 912.926 1405.88 946.277 1364.29 946.067C1322.7 945.857 1289.19 912.166 1289.4 870.851C1289.61 829.536 1323.47 796.185 1365.06 796.395C1406.65 796.605 1440.16 830.297 1439.95 871.611Z" stroke="black" stroke-opacity="0.2" stroke-width="6"/>
<path d="M1777.12 557.496C1776.46 685.131 1671.87 788.103 1543.47 787.454C1415.08 786.806 1311.54 682.783 1312.2 555.148C1312.85 427.513 1417.44 324.541 1545.84 325.189C1674.24 325.838 1777.77 429.861 1777.12 557.496Z" stroke="black" stroke-opacity="0.75" stroke-width="6"/>
<path d="M1777.12 557.496C1776.46 685.131 1671.87 788.103 1543.47 787.454C1415.08 786.806 1311.54 682.783 1312.2 555.148C1312.85 427.513 1417.44 324.541 1545.84 325.189C1674.24 325.838 1777.77 429.861 1777.12 557.496Z" stroke="black" stroke-opacity="0.2" stroke-width="6"/>
<path d="M546.886 446.663C546.552 512.062 492.96 564.838 427.148 564.506C361.337 564.174 308.286 510.859 308.62 445.46C308.954 380.06 362.547 327.284 428.358 327.617C494.17 327.949 547.22 381.264 546.886 446.663Z" stroke="#A3A3A3" stroke-opacity="0.75" stroke-width="6"/>
<path d="M544.414 223.622C543.795 344.766 444.526 442.502 322.654 441.886C200.783 441.271 102.517 342.537 103.136 221.393C103.755 100.25 203.024 2.51402 324.896 3.12963C446.767 3.74524 545.033 102.479 544.414 223.622Z" stroke="black" stroke-opacity="0.75" stroke-width="6"/>
<path d="M544.414 223.622C543.795 344.766 444.526 442.502 322.654 441.886C200.783 441.271 102.517 342.537 103.136 221.393C103.755 100.25 203.024 2.51402 324.896 3.12963C446.767 3.74524 545.033 102.479 544.414 223.622Z" stroke="black" stroke-opacity="0.2" stroke-width="6"/>
<path d="M372.518 906.105C372.001 1007.28 289.092 1088.92 187.299 1088.4C85.5058 1087.89 3.43452 1005.42 3.95141 904.243C4.4683 803.065 87.3779 721.432 189.171 721.946C290.964 722.46 373.035 804.927 372.518 906.105Z" stroke="black" stroke-opacity="0.75" stroke-width="6"/>
</svg>
